<?xml version="1.0" standalone="no"?><!DOCTYPE svg PUBLIC "-//W3C//DTD SVG 1.1//EN" "http://www.w3.org/Graphics/SVG/1.1/DTD/svg11.dtd"><svg class="icon" width="16px" height="16.00px" viewBox="0 0 1024 1024" version="1.1" xmlns="http://www.w3.org/2000/svg"><path fill="#bfbfbf" d="M897.3312 473.7536H245.8112c-79.2576 0-143.7184-64.4608-143.7184-143.7184S166.5536 186.368 245.8112 186.368h651.52a20.4288 20.4288 0 0 1 19.8144 15.36c2.3552 9.0624-1.7408 18.5344-9.8816 23.04-38.8096 21.5552-62.0032 60.8768-62.0032 105.3184s23.1936 83.7632 62.0032 105.3184c8.1408 4.5056 12.2368 13.9776 9.8816 23.04a20.44416 20.44416 0 0 1-19.8144 15.3088zM245.8112 227.328c-56.6272 0-102.7584 46.08-102.7584 102.7584s46.08 102.7584 102.7584 102.7584h595.0464c-23.4496-28.2624-36.5568-64.0512-36.5568-102.7584s13.1072-74.496 36.5568-102.7584H245.8112zM774.144 843.0592H122.5728a20.4288 20.4288 0 0 1-19.8144-15.36c-2.3552-9.0624 1.7408-18.5344 9.8816-23.04 38.8096-21.5552 62.0032-60.928 62.0032-105.3184S151.4496 615.5776 112.64 594.0224a20.4544 20.4544 0 0 1-9.8816-23.04c2.3552-9.0112 10.496-15.36 19.8144-15.36H774.144c79.2576 0 143.7184 64.4608 143.7184 143.7184s-64.512 143.7184-143.7184 143.7184z m-595.0976-40.96H774.144c56.6272 0 102.7584-46.08 102.7584-102.7584s-46.08-102.7584-102.7584-102.7584H179.0464c23.4496 28.2624 36.5568 64.0512 36.5568 102.7584 0 38.656-13.1072 74.496-36.5568 102.7584z"  /></svg>