<?xml version="1.0" standalone="no"?><!DOCTYPE svg PUBLIC "-//W3C//DTD SVG 1.1//EN" "http://www.w3.org/Graphics/SVG/1.1/DTD/svg11.dtd"><svg class="icon" width="16px" height="16.00px" viewBox="0 0 1024 1024" version="1.1" xmlns="http://www.w3.org/2000/svg"><path fill="#bfbfbf" d="M512 911.4c-12.8 0-25.2-1.6-35.6-5.4-158.2-54.2-409.4-246.6-409.4-531 0-144.8 117.2-262.4 261.2-262.4 70 0 135.4 27.4 183.8 76.2 48.4-48.8 113.8-76.2 183.8-76.2 144 0 261.2 118 261.2 262.4 0 284.8-251.2 476.8-409.4 531.2-10.4 3.6-22.8 5.2-35.6 5.2zM328.2 174.6c-109.6 0-199.2 89.8-199.2 200.4 0 282.8 272 440 367.6 472.8 7.4 2.4 23.6 2.4 31 0 95.2-32.8 367.6-189.6 367.6-472.8 0-110.6-89.4-200.4-199.2-200.4-63 0-121.2 29.4-159 80.4-11.6 15.8-38 15.8-49.6 0-38.4-51.4-96.2-80.4-159.2-80.4z" /></svg>