<?xml version="1.0" standalone="no"?><!DOCTYPE svg PUBLIC "-//W3C//DTD SVG 1.1//EN" "http://www.w3.org/Graphics/SVG/1.1/DTD/svg11.dtd"><svg class="icon" width="16px" height="16.00px" viewBox="0 0 1024 1024" version="1.1" xmlns="http://www.w3.org/2000/svg"><path fill="#bfbfbf" d="M553.8 946.6c-24.8 0-63.4-12-100.2-72.4l-72.8-118c-7-11.6-28.6-22.8-41.8-22l-138.2 7c-82.8 4.2-111.8-30.2-122-50.8-10.4-20.6-19.4-65 34.4-127.8l82-95.2c8.2-10 12.8-31.4 9.2-43.8l-42-133.6c-21.2-67 2.4-103 18.2-118.8 15.8-15.8 52.2-38.4 119.2-16.2l122 40.2c11.2 3.8 31.8 0.4 41.4-6.2l127.4-91.8c58.4-42.2 100.6-31 120-20.6 19.4 10.4 52.6 38.4 51.4 110.4l-2.8 156.8c-0.4 11.6 9.2 30.6 18.2 37.6l102.6 77.8c55.8 42.6 58 85.2 54.2 107.2-3.8 22-20.2 61.6-87.4 82.4l-133.6 41.8c-12.4 3.8-27.8 19.8-31 32.2l-31.8 121.6c-21.2 79.8-62.4 97.6-85.6 101-3 0.8-6.8 1.2-11 1.2zM340.4 672.4c35.6 0 74.8 21.6 93 51.4l72.8 118c20.6 34 39.4 44.2 49.2 42.6 9.6-1.2 24.4-17 34.8-55l31.8-121.6c8.6-33.2 39.8-65.8 72.4-75.8l133.6-41.8c25.6-7.8 42.2-20.6 44.6-34 2.4-13.2-9.2-30.6-30.6-47.2l-102.6-77.8c-25.2-19-43.4-57-43-88.6l2.8-156.8c0.4-27.8-6.2-48.4-18.2-54.6-12-6.2-32.2 0-55 16.2l-127.4 91.8c-25.2 18.2-67 24.8-97.2 14.8l-122-40.2c-25.6-8.2-46.4-7.8-55.8 1.6-9.6 9.6-10.4 30.2-2.4 55.8l41.8 133.6c10.4 32.6 1.2 77-21.2 102.6l-82 95.2c-26 30.2-30.2 51.4-25.6 60 4.2 8.6 24 18.2 63.4 16.2l138.2-7c1.6 0.6 3.4 0.6 4.6 0.6zM922 957c-7.8 0-15.8-2.8-22-9.2l-125.4-125.4c-12-12-12-31.8 0-43.8 12-12 31.8-12 43.8 0L944 904c12 12 12 31.8 0 43.8-6.2 6.4-14 9.2-22 9.2z" /></svg>