<?xml version="1.0" standalone="no"?>
<!DOCTYPE svg PUBLIC "-//W3C//DTD SVG 1.1//EN" "http://www.w3.org/Graphics/SVG/1.1/DTD/svg11.dtd"><svg class="icon"
    width="16px" height="16.00px" viewBox="0 0 1024 1024" version="1.1" xmlns="http://www.w3.org/2000/svg">
    <path fill="#bfbfbf"
        d="M568.064 841.1648H438.6304c-11.3152 0-20.48-9.1648-20.48-20.48v-164.0448c0-46.9504 38.1952-85.1968 85.1968-85.1968 46.9504 0 85.1968 38.1952 85.1968 85.1968v164.0448c0 11.3152-9.1648 20.48-20.48 20.48z m-108.9536-40.96h88.4736v-143.5648c0-24.3712-19.8656-44.2368-44.2368-44.2368-24.3712 0-44.2368 19.8656-44.2368 44.2368v143.5648z" />
    <path fill="#bfbfbf"
        d="M791.6544 915.968H210.9952c-28.5696 0-51.8656-23.2448-51.8656-51.8656v-314.5216h-14.336c-21.2992 0-40.1408-12.7488-48.128-32.512-7.936-19.7632-3.1744-42.0352 12.1856-56.7296l358.5536-344.2176a51.69664 51.69664 0 0 1 71.8336 0l358.5536 344.2176c15.36 14.7456 20.1216 37.0176 12.1856 56.7296a51.6096 51.6096 0 0 1-48.128 32.512h-18.3296v314.5216c0 28.5696-23.2448 51.8656-51.8656 51.8656zM503.3472 142.592c-2.7136 0-5.4272 1.024-7.5264 3.0208L137.2672 489.8304c-4.8128 4.608-3.3792 9.8816-2.56 11.9296s3.4816 6.8096 10.0864 6.8096h34.816c11.3152 0 20.48 9.1648 20.48 20.48v335.0016c0 5.9904 4.864 10.9056 10.9056 10.9056h580.6592c5.9904 0 10.9056-4.864 10.9056-10.9056v-335.0016c0-11.3152 9.1648-20.48 20.48-20.48h38.8096c6.656 0 9.2672-4.7616 10.0864-6.8096 0.8192-2.048 2.2016-7.3216-2.56-11.9296L510.8736 145.6128c-2.0992-1.9968-4.8128-3.0208-7.5264-3.0208z" />
</svg>