<?xml version="1.0" standalone="no"?><!DOCTYPE svg PUBLIC "-//W3C//DTD SVG 1.1//EN" "http://www.w3.org/Graphics/SVG/1.1/DTD/svg11.dtd"><svg class="icon" width="16px" height="16.00px" viewBox="0 0 1024 1024" version="1.1" xmlns="http://www.w3.org/2000/svg"><path fill="#bfbfbf" d="M506.368 483.6864c-99.584 0-180.5824-80.9984-180.5824-180.5824S406.784 122.5728 506.368 122.5728s180.5824 80.9984 180.5824 180.5824-81.0496 180.5312-180.5824 180.5312z m0-309.9136c-71.3216 0-129.3824 58.0096-129.3824 129.3824S435.0464 432.4864 506.368 432.4864s129.3824-58.0096 129.3824-129.3824-58.0608-129.3312-129.3824-129.3312zM664.9344 904.448H347.8016c-108.544 0-196.864-88.32-196.864-196.864v-10.0864c0-108.544 88.32-196.864 196.864-196.864h317.1328c108.544 0 196.864 88.32 196.864 196.864v10.0864c0 108.544-88.32 196.864-196.864 196.864z m-317.1328-352.6656c-80.3328 0-145.664 65.3312-145.664 145.664v10.0864c0 80.3328 65.3312 145.664 145.664 145.664h317.1328c80.3328 0 145.664-65.3312 145.664-145.664v-10.0864c0-80.3328-65.3312-145.664-145.664-145.664H347.8016z"  /></svg>