<?xml version="1.0" standalone="no"?><!DOCTYPE svg PUBLIC "-//W3C//DTD SVG 1.1//EN" "http://www.w3.org/Graphics/SVG/1.1/DTD/svg11.dtd"><svg class="icon" width="16px" height="16.00px" viewBox="0 0 1024 1024" version="1.1" xmlns="http://www.w3.org/2000/svg"><path fill="#bfbfbf" d="M512 957c-245.4 0-445-199.6-445-445S266.6 67 512 67 957 266.6 957 512 757.4 957 512 957z m0-828C300.8 129 129 300.8 129 512S300.8 895 512 895 895 723.2 895 512 723.2 129 512 129z"  /><path fill="#bfbfbf" d="M665.6 674.6c-5.4 0-10.8-1.2-15.8-4.6l-128.4-76.6c-31.8-19-55.4-60.8-55.4-97.6V326c0-17 14-31 31-31s31 14 31 31v169.8c0 15 12.4 36.8 25.2 44.2l128.4 76.6c15 8.6 19.4 27.8 10.8 42.6-6.2 10.2-16.4 15.4-26.8 15.4z"  /></svg>